#define xcurs32_width 32
#define xcurs32_height 32
static unsigned char xcurs32_bits[] = {
   0x00, 0x00, 0x00, 0x00, 0x00, 0x00, 0x00, 0x00, 0x00, 0x00, 0x00, 0x00,
   0x80, 0x07, 0x00, 0x01, 0x00, 0x0f, 0x80, 0x00, 0x00, 0x1e, 0x40, 0x00,
   0x00, 0x3c, 0x20, 0x00, 0x00, 0x78, 0x10, 0x00, 0x00, 0xf0, 0x08, 0x00,
   0x00, 0xe0, 0x05, 0x00, 0x00, 0xc0, 0x06, 0x00, 0x00, 0x40, 0x07, 0x00,
   0x00, 0x20, 0x0f, 0x00, 0x00, 0x10, 0x1e, 0x00, 0x00, 0x08, 0x3c, 0x00,
   0x00, 0x04, 0x78, 0x00, 0x00, 0x02, 0xf0, 0x00, 0x00, 0x01, 0xe0, 0x01,
   0x80, 0x00, 0xc0, 0x03, 0x00, 0x00, 0x00, 0x00, 0x00, 0x00, 0x00, 0x00,
   0x4c, 0x2a, 0xc6, 0x18, 0x52, 0x5a, 0x29, 0x25, 0x42, 0x0a, 0x29, 0x25,
   0x42, 0x0a, 0xe2, 0x09, 0x42, 0x0a, 0x24, 0x10, 0x42, 0x0a, 0x29, 0x20,
   0x52, 0x0a, 0x29, 0x25, 0x8c, 0x09, 0xc6, 0x18, 0x00, 0x00, 0x00, 0x00,
   0x00, 0x00, 0x00, 0x00, 0x00, 0x00, 0x00, 0x00};
