#define xcurses_width 64
#define xcurses_height 64
static unsigned char xcurses_bits[] = {
   0x00, 0x00, 0x00, 0x00, 0x00, 0x00, 0x00, 0x00, 0x00, 0x00, 0x00, 0x00,
   0x00, 0x00, 0x00, 0x00, 0x00, 0x00, 0x00, 0x00, 0x00, 0x00, 0x00, 0x00,
   0x00, 0x00, 0x00, 0x00, 0x00, 0x00, 0x00, 0x00, 0x00, 0x00, 0x00, 0x00,
   0x00, 0x00, 0x00, 0x00, 0x00, 0x00, 0x00, 0x00, 0x00, 0x00, 0x00, 0x00,
   0x00, 0x00, 0x00, 0x00, 0x00, 0x00, 0x00, 0x00, 0x00, 0x00, 0xff, 0x00,
   0x00, 0xc0, 0x00, 0x00, 0x00, 0x00, 0xfe, 0x01, 0x00, 0xc0, 0x00, 0x00,
   0x00, 0x00, 0xfc, 0x03, 0x00, 0x60, 0x00, 0x00, 0x00, 0x00, 0xf8, 0x07,
   0x00, 0x30, 0x00, 0x00, 0x00, 0x00, 0xf8, 0x07, 0x00, 0x18, 0x00, 0x00,
   0x00, 0x00, 0xf0, 0x0f, 0x00, 0x0c, 0x00, 0x00, 0x00, 0x00, 0xe0, 0x1f,
   0x00, 0x06, 0x00, 0x00, 0x00, 0x00, 0xc0, 0x3f, 0x00, 0x06, 0x00, 0x00,
   0x00, 0x00, 0xc0, 0x3f, 0x00, 0x03, 0x00, 0x00, 0x00, 0x00, 0x80, 0x7f,
   0x80, 0x01, 0x00, 0x00, 0x00, 0x00, 0x00, 0xff, 0xc0, 0x00, 0x00, 0x00,
   0x00, 0x00, 0x00, 0xfe, 0x61, 0x00, 0x00, 0x00, 0x00, 0x00, 0x00, 0xfe,
   0x31, 0x00, 0x00, 0x00, 0x00, 0x00, 0x00, 0xfc, 0x33, 0x00, 0x00, 0x00,
   0x00, 0x00, 0x00, 0xf8, 0x1b, 0x00, 0x00, 0x00, 0x00, 0x00, 0x00, 0xf0,
   0x0d, 0x00, 0x00, 0x00, 0x00, 0x00, 0x00, 0xf0, 0x0e, 0x00, 0x00, 0x00,
   0x00, 0x00, 0x00, 0x60, 0x1f, 0x00, 0x00, 0x00, 0x00, 0x00, 0x00, 0xb0,
   0x3f, 0x00, 0x00, 0x00, 0x00, 0x00, 0x00, 0x98, 0x7f, 0x00, 0x00, 0x00,
   0x00, 0x00, 0x00, 0x98, 0x7f, 0x00, 0x00, 0x00, 0x00, 0x00, 0x00, 0x0c,
   0xff, 0x00, 0x00, 0x00, 0x00, 0x00, 0x00, 0x06, 0xfe, 0x01, 0x00, 0x00,
   0x00, 0x00, 0x00, 0x03, 0xfc, 0x03, 0x00, 0x00, 0x00, 0x00, 0x80, 0x01,
   0xfc, 0x03, 0x00, 0x00, 0x00, 0x00, 0xc0, 0x00, 0xf8, 0x07, 0x00, 0x00,
   0x00, 0x00, 0xc0, 0x00, 0xf0, 0x0f, 0x00, 0x00, 0x00, 0x00, 0x60, 0x00,
   0xe0, 0x1f, 0x00, 0x00, 0x00, 0x00, 0x30, 0x00, 0xe0, 0x1f, 0x00, 0x00,
   0x00, 0x00, 0x18, 0x00, 0xc0, 0x3f, 0x00, 0x00, 0x00, 0x00, 0x0c, 0x00,
   0x80, 0x7f, 0x00, 0x00, 0x00, 0x00, 0x06, 0x00, 0x00, 0xff, 0x00, 0x00,
   0x00, 0x00, 0x00, 0x00, 0x00, 0x00, 0x00, 0x00, 0x00, 0x00, 0x00, 0x00,
   0x00, 0x00, 0x00, 0x00, 0x00, 0x00, 0x00, 0x00, 0x00, 0x00, 0x00, 0x00,
   0x00, 0x00, 0x00, 0x00, 0x00, 0x00, 0x00, 0x00, 0xc0, 0x23, 0x50, 0x1e,
   0x7c, 0xf0, 0xe0, 0x03, 0x60, 0x26, 0x50, 0x33, 0xc6, 0x98, 0x31, 0x06,
   0x30, 0x2c, 0xd0, 0x61, 0x83, 0x0d, 0x1b, 0x0c, 0x10, 0x28, 0xd0, 0x40,
   0x01, 0x05, 0x0a, 0x08, 0x10, 0x20, 0x50, 0x00, 0x01, 0x05, 0x0a, 0x08,
   0x10, 0x20, 0x50, 0x00, 0x03, 0x04, 0x1a, 0x00, 0x10, 0x20, 0x50, 0x00,
   0x06, 0x04, 0x32, 0x00, 0x10, 0x20, 0x50, 0x00, 0x7c, 0xfc, 0xe3, 0x03,
   0x10, 0x20, 0x50, 0x00, 0xc0, 0x04, 0x00, 0x06, 0x10, 0x20, 0x50, 0x00,
   0x80, 0x05, 0x00, 0x0c, 0x10, 0x20, 0x50, 0x00, 0x01, 0x05, 0x0a, 0x08,
   0x10, 0x28, 0x50, 0x00, 0x01, 0x05, 0x0a, 0x08, 0x30, 0x6c, 0x58, 0x00,
   0x83, 0x0d, 0x1b, 0x0c, 0x60, 0xc6, 0x4c, 0x00, 0xc6, 0x98, 0x31, 0x06,
   0xc0, 0x83, 0x47, 0x00, 0x7c, 0xf0, 0xe0, 0x03, 0x00, 0x00, 0x00, 0x00,
   0x00, 0x00, 0x00, 0x00, 0x00, 0x00, 0x00, 0x00, 0x00, 0x00, 0x00, 0x00,
   0x00, 0x00, 0x00, 0x00, 0x00, 0x00, 0x00, 0x00, 0x00, 0x00, 0x00, 0x00,
   0x00, 0x00, 0x00, 0x00, 0x00, 0x00, 0x00, 0x00, 0x00, 0x00, 0x00, 0x00,
   0x00, 0x00, 0x00, 0x00, 0x00, 0x00, 0x00, 0x00};
